<?xml version="1.0" standalone="no"?>
<!DOCTYPE svg PUBLIC "-//W3C//DTD SVG 20010904//EN"
 "http://www.w3.org/TR/2001/REC-SVG-20010904/DTD/svg10.dtd">
<svg version="1.0" xmlns="http://www.w3.org/2000/svg"
 width="16.000000pt" height="16.000000pt" viewBox="0 0 16.000000 16.000000"
 preserveAspectRatio="xMidYMid meet">

<g transform="translate(0.000000,16.000000) scale(0.100000,-0.100000)"
fill="#000000" stroke="none">
<path d="M4 147 c-3 -8 -4 -43 -2 -78 l3 -64 75 0 75 0 0 75 0 75 -73 3 c-55
2 -74 -1 -78 -11z m88 -60 c-3 -27 0 -37 11 -37 18 0 33 33 18 38 -16 5 -13
42 3 42 22 0 27 -28 12 -65 -14 -32 -16 -33 -71 -33 -54 1 -56 1 -53 27 2 17
10 27 23 28 11 2 14 0 8 -3 -17 -7 -17 -47 0 -42 19 7 43 61 29 66 -19 6 -14
24 6 20 13 -3 16 -12 14 -41z"/>
</g>
</svg>
